<?xml version="1.0" encoding="utf-8"?>
<!-- Generator: Adobe Illustrator 23.0.3, SVG Export Plug-In . SVG Version: 6.00 Build 0)  -->
<svg version="1.1" id="Layer_1" xmlns="http://www.w3.org/2000/svg" xmlns:xlink="http://www.w3.org/1999/xlink" x="0px" y="0px"
	 viewBox="0 0 200 200" style="enable-background:new 0 0 200 200;" xml:space="preserve">
<style type="text/css">
	.st0{fill:#EC008C;stroke:#000000;stroke-width:3;stroke-miterlimit:10;}
</style>
<path class="st0" d="M147.9,74.92l11.31-65.96L99.97,40.1L40.74,8.96l11.31,65.96L4.13,121.63l66.22,9.62l29.62,60.01l29.62-60.01
	l66.22-9.62L147.9,74.92z M115.45,116.38l-15.47,31.35L84.5,116.38l-34.59-5.03l25.03-24.4L69.03,52.5l30.94,16.27l30.94-16.27
	l-5.91,34.46l25.03,24.4L115.45,116.38z"/>
<g>
	<g>
		<path d="M-269.04-343.14c3.22,0,3.22-5,0-5C-272.26-348.14-272.27-343.14-269.04-343.14L-269.04-343.14z"/>
	</g>
</g>
</svg>
