<svg version="1.1" id="Layer_1" xmlns="http://www.w3.org/2000/svg" xmlns:xlink="http://www.w3.org/1999/xlink" x="0px" y="0px"
	 viewBox="0 0 200 200" style="enable-background:new 0 0 200 200;" xml:space="preserve">
<style type="text/css">
	.st0{fill:#39B54A;stroke:#000000;stroke-miterlimit:10;}
	.st1{fill:#00A651;stroke:#000000;stroke-miterlimit:10;}
	.st2{fill:#FBB040;stroke:#000000;stroke-miterlimit:10;}
</style>
<g>
	<path class="st0" d="M178.95,100.01c0.01,32.23-44.95,57.83-81.59,59.77c-43.67,2.32-93.9-60.82-93.9-60.82s50.93-61.24,93.9-58.72
		C133.83,42.36,178.93,67.74,178.95,100.01z"/>
	<circle class="st1" cx="139.75" cy="100" r="33.2"/>
	<path class="st2" d="M149.36,102.59c0-4.1,11.41-16.03,23.59-11.41c12.67,4.81,23.59,7.31,23.59,11.41
		c0,4.1-12.23,7.43-23.59,12.18C160.93,119.8,149.36,106.69,149.36,102.59z"/>
	<ellipse cx="141.72" cy="113.42" rx="5.9" ry="2.49"/>
	<ellipse cx="141.72" cy="84.58" rx="5.9" ry="2.49"/>
</g>
</svg>
